<svg id="Layer_1" data-name="Layer 1" xmlns="http://www.w3.org/2000/svg" viewBox="0 0 120 60"><defs><style>.cls-1{fill:#fff;}</style></defs><path class="cls-1" d="M113.7,56.47c-2.47,2.62-3.3-.13-6.9-.13s-3.6,1-7.2,1S96,57,92.4,57s-3.59.22-7.19.22-3.6-.76-7.2-.76-3.6-.42-7.2-.42-3.6,1.27-7.2,1.27-3.6,0-7.2,0-3.6-.37-7.2-.37-3.6-.75-7.19-.75-3.6.71-7.2.71-3.6.19-7.2.19-3.6-1-7.2-1-3.61,1.66-7.21,1.66-5.08,1.88-7.55-.74c-2.62-2.78,1.22-4.14,1.22-8s-.31-3.83-.31-7.65S7,37.65,7,33.83,5.81,30,5.81,26.18,6,22.36,6,18.54s.07-3.82.07-7.65S3.16,5.82,5.78,3c2.46-2.62,3.82.11,7.42.11s3.6.52,7.2.52S24,3,27.6,3s3.59-.26,7.19-.26,3.6.88,7.2.88,3.6-1.39,7.2-1.39,3.6.06,7.2.06,3.6,1.55,7.2,1.55,3.6-1.16,7.2-1.16,3.6,1,7.19,1,3.6.53,7.2.53,3.6-.44,7.2-.44,3.6-.25,7.2-.25,3.61.61,7.21.61S111.52.62,114,3.25s.1,3.81.1,7.63.79,3.83.79,7.65-1.69,3.82-1.69,7.64.32,3.82.32,7.65,0,3.82,0,7.64-1.17,4.06-.46,7.82S116.32,53.69,113.7,56.47Z"/></svg>