<svg id="Layer_1" data-name="Layer 1" xmlns="http://www.w3.org/2000/svg" viewBox="0 0 120 60"><defs><style>.cls-1{fill:#fff;}</style></defs><path class="cls-1" d="M115.52,57.52c-2.71,2.52-3.72-.23-7.42-.23s-3.7-.54-7.4-.54-3.7.76-7.4.76-3.69,0-7.39,0-3.7-.76-7.4-.76-3.7,1.64-7.4,1.64-3.7-1.37-7.4-1.37-3.7,1.4-7.4,1.4-3.7-.51-7.4-.51-3.69,0-7.39,0-3.7.2-7.4.2-3.71-.13-7.41-.13-3.7.31-7.4.31S15.61,57,11.91,57,6.72,60.55,4,58c-2.52-2.34-.4-4-.4-7.4s-.08-3.44-.08-6.87,1.93-3.44,1.93-6.88-1-3.43-1-6.87,1-3.44,1-6.87-.87-3.44-.87-6.88-.4-3.44-.4-6.88-2.32-4.76.2-7.11C7-.25,8.2,3.45,11.9,3.45s3.7-1.59,7.4-1.59,3.7.87,7.4.87,3.69-.84,7.39-.84,3.7-.31,7.4-.31,3.7.73,7.4.73,3.7-.85,7.4-.85,3.7.71,7.4.71,3.7-.34,7.4-.34,3.69.08,7.39.08,3.7-.12,7.4-.12,3.71.54,7.41.54,3.7-.12,7.4-.12,3.7.77,7.4.77,5.32-3.67,8-1.15c2.52,2.34-.19,4.11-.19,7.54s0,3.44,0,6.87-1,3.44-1,6.88,0,3.43,0,6.87,1,3.44,1,6.87-1,3.44-1,6.88.79,3.31,1.54,6.67C117.23,54,118,55.18,115.52,57.52Z"/></svg>