<svg id="Layer_1" data-name="Layer 1" xmlns="http://www.w3.org/2000/svg" viewBox="0 0 120 60"><defs><style>.cls-1{fill:#fff;}</style></defs><path class="cls-1" d="M116.24,58.29c-2.71,2.52-4.44-1.13-8.14-1.13s-3.7,1.05-7.4,1.05-3.7-.14-7.4-.14-3.69-1.25-7.39-1.25-3.7,1.44-7.4,1.44-3.7.18-7.4.18-3.7-1.65-7.4-1.65-3.7-.24-7.4-.24-3.7.71-7.4.71H41.52c-3.7,0-3.7-.63-7.4-.63s-3.71.75-7.41.75-3.7.06-7.4.06-3.7-1-7.4-1S7,60.2,4.33,57.69c-2.52-2.34.21-3.63.21-7.06s1-3.44,1-6.87S4.4,40.32,4.4,36.88s.12-3.43.12-6.87-.9-3.44-.9-6.87,1.46-3.44,1.46-6.88S5,12.82,5,9.38s-3.14-4.65-.62-7c2.71-2.52,3.81.54,7.51.54s3.7.63,7.4.63,3.7-.77,7.4-.77,3.69-.31,7.39-.31,3.7.92,7.4.92,3.7-.28,7.4-.28,3.7,0,7.4,0S60,2,63.69,2s3.7.07,7.4.07,3.69.5,7.39.5,3.7.91,7.4.91,3.71-.8,7.41-.8S97,2,100.69,2s3.7.36,7.4.36,5.07-2.75,7.79-.24c2.52,2.34-.85,3.85-.85,7.28s1.43,3.44,1.43,6.87.05,3.44.05,6.88-1,3.43-1,6.87.94,3.44.94,6.87-1.88,3.44-1.88,6.88a18.12,18.12,0,0,0,.9,6.89C116.52,54.62,118.76,56,116.24,58.29Z"/></svg>