<svg id="Layer_1" data-name="Layer 1" xmlns="http://www.w3.org/2000/svg" viewBox="0 0 120 60"><defs><style>.cls-1{fill:#fff;}</style></defs><path class="cls-1" d="M115.83,57.85c-2.71,2.52-4-.33-7.73-.33s-3.7-1.05-7.4-1.05S97,58,93.3,58s-3.69.05-7.39.05-3.7-.49-7.4-.49-3.7.41-7.4.41-3.7-.22-7.4-.22-3.7.76-7.4.76-3.7-1.3-7.4-1.3-3.69.39-7.39.39-3.7-.07-7.4-.07-3.71.47-7.41.47-3.7-.17-7.4-.17-3.7-.83-7.4-.83-4.17,2.47-6.88,0c-2.52-2.34-.21-2.87-.21-6.3s-1-3.44-1-6.87S4,40.32,4,36.88,5.22,33.45,5.22,30s-1.56-3.44-1.56-6.87,1.73-3.44,1.73-6.88-1-3.44-1-6.88S2,4.84,4.49,2.49C7.2,0,8.2,2.7,11.9,2.7s3.7-.37,7.4-.37,3.7.1,7.4.1,3.69-.32,7.39-.32,3.7-.41,7.4-.41,3.7,1.87,7.4,1.87,3.7-1.39,7.4-1.39,3.7-.38,7.4-.38,3.7,1.6,7.4,1.6,3.69-.89,7.39-.89,3.7-.7,7.4-.7,3.71.5,7.41.5,3.7.93,7.4.93,3.7-.09,7.4-.09,5.07-3.57,7.78-1c2.52,2.34.42,3.84.42,7.27s-.11,3.44-.11,6.87-.26,3.44-.26,6.88.6,3.43.6,6.87-1.26,3.44-1.26,6.87,1.07,3.44,1.07,6.88-.93,3.36-.13,6.71C117.12,54.22,118.35,55.51,115.83,57.85Z"/></svg>